<svg enable-background="new 0 0 399 69.1" viewBox="0 0 399 69.1" xmlns="http://www.w3.org/2000/svg"><g fill="#fff"><path d="m73.7 38.2c-4.4-3-10.6-4.7-18.9-5.2 7.6-.2 13.5-1.7 17.7-4.5s6.3-6.5 6.4-11.2c0-6-2.6-10.4-7.8-13.1s-13.6-4.1-25.2-4.1c-1.4 0-2.5 0-3.2 0-.8 0-1.4.1-2.1.1v5.8c3.5 0 5.9.7 7.3 2s2.1 3.5 2.1 6.6v6.7c0 3.1-.7 5.4-2.1 6.6-1.4 1.3-3.8 1.9-7.2 2v5.8c3.4.1 5.8.7 7.2 2s2.1 3.5 2.1 6.6v10c0 3.1-.7 5.4-2.1 6.6-1.4 1.3-3.8 1.9-7.3 2v5.9c.5 0 1.3.1 2.3.1h2.3c11.9.1 20.8-1.4 26.5-4.4s8.6-7.7 8.6-14c0-4.9-2.4-9.6-6.6-12.3z"/><path d="m150.3 0h-28.4l-34.7 63v6h28.5l34.6-62.9z"/><path d="m147 46.6c-1.7 0-3.2 1.4-4.4 4.2-.6 1.5-1.4 3-2.3 4.3-1.7 2.4-4 4.2-6.7 5.3-3.3 1.4-6.9 2.1-10.5 2.2l-3.5 6.4h31.4v-15c0-3-.3-5-.9-6-.7-1-1.9-1.6-3.1-1.4z"/><path d="m1.2.8c-.8.4-1.3 1.3-1.2 2.2 0 1.3 1.1 2.4 3.2 3.1.5.2.9.3 1.1.4.8.2 1.4.7 1.9 1.3.4.9.6 2 .5 3v47.6c.1 1-.1 2.1-.5 3-.5.6-1.2 1.1-1.9 1.3l-1.1.3c-2.1.7-3.2 1.8-3.2 3.1-.1.9.4 1.7 1.2 2.2 1.3.5 2.7.7 4.1.6h31.3v-68.8h-31.3c-1.4-.1-2.8.2-4.1.7z"/><path d="m198.6 63-.4-.1c-2.4-.7-3.6-1.8-3.6-3.3v-2-57.5h-30.2c-1.4-.1-2.7.1-4 .7-.8.4-1.3 1.3-1.2 2.2 0 1.3 1 2.4 3.1 3.1.5.2.8.3 1.1.4.7.2 1.4.7 1.9 1.3.4.9.6 2 .5 3v47.8c.1 1-.1 2.1-.5 3-.5.6-1.1 1.1-1.9 1.3-.2.1-.6.2-1.1.4-2.1.7-3.1 1.8-3.1 3.2-.1.9.4 1.7 1.2 2.2 1.3.5 2.6.7 4 .6h31.8c1.7.1 3.3-.1 4.9-.6.8-.4 1.4-1.2 1.3-2.1 0-.8-.3-1.5-.8-2-.9-.9-1.9-1.4-3-1.6z"/><path d="m384.9 28.3c1 1.5 1.9 3 2.6 4.6 1.1 2.6 2.6 3.9 4.5 3.9 1 .1 2-.2 2.8-.9.7-.9 1-1.9.8-3v-12.9c.1-.8-.2-1.7-.7-2.3-.7-.4-1.6-.6-2.5-.5-1.2 0-2.4.4-3.3 1.3-.6.7-1.5 1.2-2.5 1.3-1.8-.3-3.5-.7-5.2-1.2-2.9-.8-5.8-1.3-8.8-1.5v4.4c2.4.1 4.7.8 6.7 1.9 2.2 1.2 4.1 2.9 5.6 4.9z"/><path d="m93 20.7c1.5 0 2.7-1.2 3.9-3.7.6-1.4 1.3-2.7 2.1-4 1.5-2.2 3.6-3.9 6.1-5 3.1-1.3 6.4-1.9 9.7-2l3.1-6h-28.6v13.9c0 2.6.3 4.4.8 5.3.6 1 1.7 1.6 2.9 1.5z"/><path d="m339.9 64.4c-1.6-.6-2.5-1.3-2.5-2 0-.2-.1-.4-.2-.6-.1-.3-.2-.6-.3-.9l-13.5-43.9h-19.4l-1.5 4.4 9 29.4h-10.1l-1.8 5.3h13.4l1.6 5c.1.3.2.6.2.8s.1.3.1.5c0 .7-.6 1.4-1.9 2s-1.9 1.3-1.9 2.1.4 1.6 1.1 1.9c1.3.5 2.6.7 4 .6h20.9c1.4.1 2.8-.1 4.2-.5.7-.3 1.1-1 1-1.8 0-.9-.8-1.7-2.4-2.3z"/><path d="m342.5 43c0 7.6 2.4 13.7 7.2 18.2s11.5 7.1 20.2 7.8v-4.2c-1.3 0-2.6-.6-3.4-1.6-.6-.9-.9-2.5-.9-5v-30.3c0-2.5.3-4.1.9-5 .9-1 2.1-1.6 3.4-1.6v-4.3c-8.7.7-15.4 3.3-20.2 7.9s-7.2 10.5-7.2 18.1z"/><path d="m299.1 64.4c-.5-.2-.9-.3-1.2-.5-.8-.3-1.4-.7-1.9-1.3-.4-.6-.7-1.3-.7-2 0-.4 0-.7.1-1.1s.2-.8.3-1.1l8-24-2.7-8.9-11.1 32.9c-.4 1.3-1 2.5-1.8 3.6-.7.9-1.6 1.5-2.6 2-.5.2-1.1.4-1.6.5-1.9.5-2.8 1.3-2.8 2.4 0 .7.3 1.4 1 1.7 1.1.4 2.3.6 3.4.5h11.3c1.2.1 2.4-.1 3.5-.6.7-.3 1.1-1 1.1-1.7 0-1.1-.8-1.9-2.3-2.4z"/><path d="m213.1 20.9c-.6-.8-1.6-1.2-2.6-1.1-1.6 0-3 1.1-4 3.3-.5 1.3-1.1 2.3-1.5 3.1-.5 1-1.3 1.9-2.2 2.5-1.3.7-2.6 1.3-4.1 1.5v6.4c1.4.3 2.8.8 4 1.6 1 .7 1.8 1.6 2.3 2.6.4.8.9 1.8 1.5 3 1 2.2 2.3 3.3 4 3.3 1 .1 2-.3 2.7-1.1.6-1.1.9-2.5.8-3.8v-17.2c.1-1.4-.2-2.8-.9-4.1z"/><path d="m398.1 43c-.8-.4-1.8-.6-2.7-.5h-20c-1.1-.1-2.2.1-3.2.4-.6.3-.9.9-.9 1.5 0 1.1.8 1.9 2.5 2.4l.8.2c.5.1 1 .4 1.4.8.3.5.4 1.2.3 1.8v10.9c.1 1.1-.2 2.1-.8 3-.8.7-1.9 1-3 1v4.5c4.2-.1 8.3-.7 12.3-2 3.9-1.2 7.6-3 11-5.3v-12.6c0-.5.1-1 .3-1.5.3-.3.6-.6 1-.8.6-.2 1.1-.6 1.5-1 .3-.4.4-.8.4-1.3 0-.6-.3-1.2-.9-1.5z"/><path d="m276.4 50.8c-1.1 0-2.1 1.1-2.9 3.2-.4 1.3-1 2.7-1.7 3.9-1.1 1.9-2.6 3.4-4.5 4.5-2 1.1-4.2 1.7-6.5 1.8v4.8h18.3v-12.3c0-2.6-.2-4.2-.6-4.9-.3-.7-1.2-1.1-2.1-1z"/><path d="m198.7 6.4c3.2.2 6.3 1 9.2 2.2 2.6 1.1 4.9 2.8 6.7 4.9.9 1.2 1.7 2.5 2.3 3.9 1.3 2.7 2.8 4 4.7 4 .9 0 1.8-.3 2.5-.9.6-.6 1-1.4.9-2.3v-18.2h-26.3z"/><path d="m262.9 19.1c.1-.7-.3-1.3-.8-1.7-.9-.4-1.9-.6-2.8-.5h-22.5c-1-.1-1.9.1-2.8.5-.6.4-.9 1-.8 1.7 0 1 .7 1.8 2.2 2.3l.8.3c.5.2 1 .5 1.3 1 .3.7.4 1.5.3 2.2v36c.1.8 0 1.5-.3 2.2-.3.5-.8.8-1.3 1l-.8.3c-1.5.5-2.2 1.4-2.2 2.4-.1.7.3 1.3.8 1.6.9.4 1.9.6 2.8.5h21.6v-43.9c-.1-.8.1-1.5.3-2.2.3-.5.8-.8 1.3-1l.8-.3c1.4-.6 2.1-1.4 2.1-2.4z"/></g></svg>