<svg enable-background="new 0 0 69 85.2" viewBox="0 0 69 85.2" xmlns="http://www.w3.org/2000/svg"><g fill="#fff"><path d="m26.1 26.3h-8.6l-4.2 4.1v40.9l4 4h4.9v4.1h9.2v-4.1h8.2v3.9h7.2v-3.9h5l3.9-3.9v-41.1l-4-4h-8.7v11.5l2.2 2.3c4.2 4.2 4.3 4.6 4.3 17.3v9.8l-1.8 1.8h-26.3l-1.8-1.8.1-10.2c.1-9.8.1-10.3.6-11.6.9-2.2 2.3-4.2 4.1-5.7l1.8-1.7v-11.7z"/><path d="m16.4 79.1c-2.5-1.4-4.6-4.4-6.8-6.2v-44.3l6.4-5.9c.1-3.2.3-9.1.4-12.9l-3.2-3.3h-9.7l-3.5 3.5v71.7l3.5 3.4h9.6l3.3-3.2z"/><path d="m24.4 45.3c-1.3 2.5-1.4 3.9-1.4 12.4v7.7h22.9v-8.3c0-8.8 0-9.1-1.2-11.6-1.3-2.3-3.3-4.1-5.7-5.3-1.5-.6-3.2-.9-4.9-.8-1 0-1.9.2-2.9.4-2.9.8-5.3 2.8-6.8 5.5z"/><path d="m30.6 36c2.7-.2 5.3-.2 8 0l.8.2v-36.2h-9.7v36.2z"/><path d="m53 22.7c2.2 2 3.9 3.7 6.3 5.9v44.4l-6.3 5.9c-.8.4-.3 2.1-.4 2.9l3.5 3.4h9.7l3.2-3.2v-72.2l-3.2-3.3h-9.7l-3.5 3.5z"/></g></svg>